<?xml version="1.0" encoding="UTF-8"?>
<svg width="247px" height="100px" viewBox="0 0 247 100" version="1.1" xmlns="http://www.w3.org/2000/svg" xmlns:xlink="http://www.w3.org/1999/xlink">
    <title>画板</title>
    <g id="画板" stroke="none" stroke-width="1" fill="none" fill-rule="evenodd">
        <g id="肝脏-01" transform="translate(10.000000, 16.000000)" fill="#666666" fill-rule="nonzero">
            <path d="M57.0672671,2.99379766 L57.4379957,2.95116127 C60.1426295,2.61007017 63.0157762,2.24339724 66.2006721,2.09843352 C70.2449843,1.90230614 73.8258857,2.03874258 77.2382741,2.16665174 C79.1087685,2.23486996 80.9202834,2.30308818 82.6559674,2.31161546 C83.1193781,2.31161546 83.532235,2.40541551 83.9282406,2.57596106 C83.9872201,2.60154289 84.037774,2.61859745 84.0883279,2.65270656 C85.2173651,3.22403415 85.8240119,4.3411075 85.967248,5.85896289 C86.0683558,6.90781803 85.9335454,8.22101876 85.5880937,9.67065593 C84.930893,12.3738029 83.5153837,15.7335502 81.4763763,18.8971702 C80.0440157,21.0886805 78.3588856,23.4763182 76.1008113,25.8895377 C74.0196757,28.1151571 71.4667036,30.3322493 68.2144026,32.4214323 C67.5066479,36.4548345 66.0658617,40.0362911 63.7656591,43.0805291 C62.0215495,45.3828941 59.8140291,47.3526952 57.0756927,48.9387688 C57.4127187,47.1139314 57.6991908,45.2720395 57.9014065,43.4216202 C58.9124845,42.5688925 59.8056034,41.6223647 60.5723376,40.6076187 C61.7350774,39.0727087 62.6197707,37.3501987 63.2853971,35.4571431 C61.6423952,36.3695618 59.9741165,37.1881804 58.3058377,37.9300535 C58.3479659,36.4121981 58.3479659,34.9113973 58.297412,33.3935419 C63.8583413,30.7927223 69.0569676,27.4926659 73.1855363,23.0840634 C75.216118,20.9096077 76.7748634,18.7095701 78.0976905,16.6630235 C79.892354,13.8916583 81.1309246,11.0009112 81.6785919,8.71560085 C81.9060845,7.76054577 82.0071923,6.95898169 81.9734897,6.37059954 C80.3304878,6.34501771 78.7296143,6.29385405 77.0950381,6.22563583 C73.7753318,6.09772666 70.2871126,5.96129022 66.3944621,6.15741761 C63.4876127,6.30238132 60.6228915,6.66052698 57.9351091,7.00161808 C57.3368879,7.07836358 56.755518,7.1465818 56.1741481,7.21480002 C56.3173842,6.10625394 56.5364511,5.01476242 56.8060719,3.93179818 C56.8987541,3.62481619 56.9914362,3.3178342 57.0672671,2.99379766 L57.0672671,2.99379766 Z M7.93729953,70.3507626 C7.2969501,67.1018698 6.2942977,63.3413405 5.2242401,59.3079382 C2.78080148,50.1411149 -0.0249401091,39.5758181 0.000167291675,29.8461945 C0.0677420454,6.50703598 12.2596582,2.30308818 26.8107564,2.34540537 C29.8945445,2.35425185 32.9867582,2.57596106 36.0621206,2.79767027 C36.196931,2.80619755 36.2306336,2.80619755 36.2980388,2.80619755 C36.6687674,3.28372509 38.3454719,5.65430823 38.7414774,6.1233085 C39.0026726,6.4643996 39.2554421,6.82254525 39.5166373,7.16363635 L38.6150927,7.08689085 C34.5792061,6.75432703 30.5180426,6.41323593 26.8107564,6.40470865 C14.433476,6.37059954 4.06992599,9.96058337 4.01094644,29.8461945 C3.98566949,39.0130178 6.72400587,49.3054417 9.10003928,58.2590831 C9.39493705,59.3505746 9.67298351,60.4250116 9.95945563,61.4738667 C14.3070912,47.3612224 26.2715148,43.8820932 39.9716224,39.9169092 C42.8194922,39.0982906 45.7600442,38.2029264 48.7090219,37.1881804 C48.6837449,38.6548721 48.6079141,40.1386184 48.4731036,41.5967829 C45.9706855,42.3983469 43.4935443,43.1146383 41.0753826,43.8224023 C27.0972286,47.8813864 15.0991024,51.3605156 12.7314946,67.536761 L12.723069,67.5793974 C16.699976,66.922797 19.8343179,65.5840144 22.3114591,64.0235227 C25.3783959,62.096358 27.4511059,59.8195749 28.8666151,58.0629557 C29.8355649,56.8691368 30.6444274,56.0078818 31.7397619,55.2830632 C32.8013939,54.5752992 34.0231132,54.0295534 35.8177767,53.4155895 C36.7614496,53.1000802 37.8146559,52.8698437 39.0026726,52.6310799 C41.2775982,52.1535524 44.125468,51.5481157 47.2261074,49.9535148 C46.8806557,51.6248612 46.4677988,53.2962076 46.029665,54.9334449 C43.7126112,55.8032272 41.6061986,56.2466456 39.8199607,56.6047912 C38.7414774,56.8350277 37.7893789,57.0396824 37.0816243,57.2699189 C35.6324124,57.764501 34.6971652,58.1738103 33.9641336,58.6598651 C33.2648047,59.1288654 32.6918604,59.7428294 31.9672545,60.6296662 C30.341104,62.650631 27.9566449,65.2599779 24.4178717,67.4941246 C20.8790986,69.7282713 16.2028626,71.5531087 10.0184352,71.9965271 C9.01578278,72.0562181 8.12266384,71.3399268 7.93729953,70.3507626 L7.93729953,70.3507626 Z" id="形状"></path>
            <path d="M46.2443678,63.8354701 C46.462205,63.1266259 48.457594,56.5698164 48.6667177,55.8440949 C51.3591857,46.527856 52.4135179,37.0259675 50.9757922,27.878501 C49.7036229,19.8196168 46.4883455,12.0138913 40.667735,4.84106247 C40.2669145,4.35162238 39.883521,3.89593679 39.4827005,3.42337394 C38.7507674,2.56263448 38.8640428,1.28840253 39.7353917,0.579558269 C40.6241675,-0.129285994 41.9399043,-0.0195839058 42.6718374,0.824278312 C43.1162253,1.33903427 43.5606133,1.86222884 43.9788607,2.39386204 C44.8850636,3.4064967 45.7041315,4.19128856 46.444778,4.71448314 C47.5862451,5.54146811 48.457594,5.98027646 49.4160777,4.74823763 C49.7994712,4.25035892 50.1654378,3.56683052 50.4529829,2.71452968 C50.4878368,2.60482759 50.8276629,1.44873635 50.8363764,1.43185911 C51.1762025,0.42766307 52.2305346,-0.196794972 53.3022937,0.0563636938 C54.4176203,0.317960981 55.1059859,1.39810462 54.8358677,2.46980964 C54.7400194,2.84954764 54.626744,3.24616288 54.5134687,3.6343395 C53.5724119,7.11949046 53.3284342,10.6637118 53.4765635,14.1826172 C53.6421198,18.1234538 54.3043449,22.0558517 55.053705,25.8616703 C56.1167506,31.2623885 56.2387394,36.7728088 55.6462222,42.3591767 C55.1408399,47.0088575 54.1562156,51.7260473 52.7794844,56.468553 C52.5267932,57.3630469 50.4878368,64.105506 50.1915782,65 L46.2443678,63.8354701 L46.2443678,63.8354701 Z" id="路径"></path>
        </g>
        <text id="NAFLD-KBD" font-family="HiraMaruProN-W4, Hiragino Maru Gothic ProN" font-size="36" font-weight="normal" fill="#666666">
            <tspan x="104.5" y="48">NAFLD </tspan>
            <tspan x="104.5" y="84">KBD</tspan>
        </text>
    </g>
</svg>